<?xml version="1.0" encoding="UTF-8"?><svg id="a" xmlns="http://www.w3.org/2000/svg" viewBox="0 0 160 160"><rect width="160" height="160" stroke-width="0"/><path d="M49.93,79.2c1.3-2.27.5-5.15-1.78-6.43-2.29-1.28-5.2-.47-6.5,1.8l-15.3,26.7c-1.3,2.27-.5,5.15,1.78,6.43,2.29,1.28,5.2.47,6.5-1.8l15.3-26.7Z" fill="#c1f24d" stroke-width="0"/><path d="M82.91,58.73c1.3-2.27.5-5.15-1.78-6.43-2.29-1.28-5.2-.47-6.5,1.8l-15.3,26.7c-1.3,2.27-.5,5.15,1.78,6.43,2.29,1.28,5.2.47,6.5-1.8l15.3-26.7Z" fill="#c1f24d" stroke-width="0"/><path d="M133.66,58.73c1.3-2.27.5-5.15-1.78-6.43-2.29-1.28-5.2-.47-6.5,1.8l-15.3,26.7c-1.3,2.27-.5,5.15,1.78,6.43,2.29,1.28,5.2.47,6.5-1.8l15.3-26.7Z" fill="#c1f24d" stroke-width="0"/><path d="M100.67,79.2c1.3-2.27.5-5.15-1.78-6.43-2.29-1.28-5.2-.47-6.5,1.8l-15.3,26.7c-1.3,2.27-.5,5.15,1.78,6.43,2.29,1.28,5.2.47,6.5-1.8l15.3-26.7Z" fill="#c1f24d" stroke-width="0"/></svg>