<svg xmlns="http://www.w3.org/2000/svg" viewBox="0 0 380 380" width="64" height="64">
  <defs>
    <linearGradient id="a" x1="50%" x2="50%" y1="0%" y2="100%">
      <stop offset="0%" stop-color="#FC6D26"/>
      <stop offset="100%" stop-color="#E24329"/>
    </linearGradient>
  </defs>
  <path fill="url(#a)" d="M282.83 170.73l-.27-.69-26.14-68.22a6.81 6.81 0 0 0-2.69-3.24 7 7 0 0 0-8.43.37 7 7 0 0 0-2.32 3.5l-17.65 54H154.29l-17.65-54A6.86 6.86 0 0 0 134.48 99a7 7 0 0 0-8.43-.37 6.81 6.81 0 0 0-2.69 3.24L97.44 170l-.26.69a48.54 48.54 0 0 0 16.1 56.1l.09.07.24.16 39.82 29.82 19.7 14.91 12 9.06a8.07 8.07 0 0 0 9.76 0l12-9.06 19.7-14.91 40.06-30 .1-.08A48.56 48.56 0 0 0 282.83 170.73z"/>
</svg> 