<svg width="281" xmlns="http://www.w3.org/2000/svg" height="371" fill="none"><g class="fills"><rect rx="0" ry="0" width="281" height="371" transform="matrix(1.000000, 0.000000, 0.000000, 1.000000, 0.000000, 0.000000)" class="frame-background"/></g><g class="frame-children"><g class="fills"><rect rx="0" ry="0" width="281" height="371" transform="matrix(1.000000, 0.000000, 0.000000, 1.000000, 0.000000, 0.000000)" class="frame-background"/></g><g class="frame-children"><g class="fills"><rect rx="0" ry="0" width="281" height="371" transform="matrix(1.000000, 0.000000, 0.000000, 1.000000, 0.000000, 0.000000)" class="frame-background"/></g><g style="fill: rgb(0, 0, 0);" class="frame-children"><path d="M73.297,0.000L34.267,54.944L34.267,86.006L0.307,102.153L0.000,102.012L0.000,114.776L0.000,304.651L132.411,367.183L140.500,371.000L148.594,367.183L281.000,304.651L281.000,102.012L280.751,102.129L246.782,85.976L246.782,54.944L245.592,53.277L207.751,0.000L168.721,54.944L168.721,55.003L140.325,15.017L112.143,54.691L111.138,53.277L73.297,0.000ZZM80.201,31.915L95.297,53.165L51.298,53.165L66.218,32.163L80.201,31.915ZZM214.655,31.915L229.751,53.165L185.752,53.165L200.667,32.163L214.655,31.915ZZM147.229,46.936L162.324,68.187L118.325,68.187L133.245,47.185L147.229,46.936ZZM47.124,63.878L67.993,63.878L67.993,134.117L47.124,124.261L47.124,63.878ZZM78.704,63.878L99.471,63.878L99.471,148.982L78.704,139.176L78.704,63.878ZZM181.583,63.878L202.447,63.878L202.447,139.102L181.583,148.958L181.583,63.878ZZM213.158,63.878L233.925,63.878L233.925,124.237L213.158,134.043L213.158,63.878ZZM114.151,78.899L135.019,78.899L135.019,165.768L114.151,155.913L114.151,78.899ZZM145.737,78.899L166.497,78.899L166.497,156.083L145.737,165.889L145.737,78.899ZZM246.777,101.982L265.149,109.493L246.777,118.169L246.777,101.982ZZM34.267,102.012L34.267,118.193L15.900,109.517L34.267,102.012ZZM16.183,127.541L132.411,182.427L132.411,349.292L16.183,294.406L16.183,127.541ZZM264.818,127.541L264.818,294.406L148.594,349.292L148.594,182.427L264.818,127.541ZZ" style="fill: rgb(255, 255, 255); fill-opacity: 1;" class="fills"/></g></g></g></svg>